<svg viewBox="0 0 113.683837890625 111.1806640625" version="1.1" xmlns="http://www.w3.org/2000/svg" class=" layout-box" width="37">
								<g transform="matrix(1 0 0 1 -1.683129882812409 90.8203125)">
								  <path d="M8.72266-35.2606C8.72266-7.47784 31.3516 15.1511 59.1344 15.1511C86.9606 15.1511 109.59-7.47784 109.59-35.2606C109.59-50.7642 102.467-64.6827 91.3977-73.9726L87.465-67.3934C96.3507-59.5491 102.026-48.0686 102.026-35.2606C102.026-11.5985 82.7966 7.63087 59.1344 7.63087C35.5156 7.63087 16.2863-11.5985 16.2863-35.2606C16.2863-48.0686 21.9181-59.5491 30.8038-67.3934L26.9146-73.9726C15.8451-64.6827 8.72266-50.7642 8.72266-35.2606ZM25.0223-35.2606C25.0223-16.4104 40.3276-1.10512 59.1344-1.10512C77.9846-1.10512 93.2899-16.4104 93.2899-35.2606C93.2899-44.9063 89.2816-53.5323 82.864-59.7789L78.7988-52.9359C83.0601-48.2867 85.6766-42.0758 85.6766-35.2606C85.6766-20.6122 73.7828-8.71848 59.1344-8.71848C44.486-8.71848 32.5922-20.6122 32.5922-35.2606C32.5922-42.0758 35.2086-48.2867 39.5134-52.9359L35.4047-59.7789C29.0306-53.5323 25.0223-44.9063 25.0223-35.2606ZM41.1755-35.2709C41.1755-25.3573 49.2208-17.312 59.1344-17.312C69.048-17.312 77.1367-25.3573 77.1367-35.2709C77.1367-40.3835 74.9749-44.9589 71.5659-48.2212L88.1519-75.7173C88.3491-76.0494 88.2885-76.3695 87.9564-76.6204C79.8818-82.4204 69.3532-85.6724 59.1344-85.6724C48.9505-85.6724 38.387-82.4204 30.3558-76.6204C30.0237-76.3695 29.9631-76.0494 30.1603-75.7173L46.7463-48.2212C43.3373-44.9589 41.1755-40.3835 41.1755-35.2709ZM39.974-73.5699C45.726-76.4747 52.2276-78.1522 59.1344-78.1522C66.0412-78.1522 72.5428-76.4747 78.3382-73.5699L73.8098-66.0611C69.3474-68.2477 64.3481-69.4162 59.1344-69.4162C53.9207-69.4162 48.9214-68.2477 44.5024-66.0611ZM48.4728-59.5151C51.7005-61.0046 55.356-61.8028 59.1344-61.8028C62.9562-61.8028 66.6117-61.0046 69.8394-59.5151L65.3345-52.1213C63.414-52.8262 61.3356-53.2298 59.1344-53.2298C56.9766-53.2298 54.8983-52.8262 52.9343-52.1213ZM48.0558-35.2709C48.0558-41.4246 52.9807-46.3929 59.1344-46.3929C65.3315-46.3929 70.2564-41.4246 70.2564-35.2709C70.2564-29.1275 65.3213-24.1489 59.1344-24.1489C52.9909-24.1489 48.0558-29.1275 48.0558-35.2709ZM51.641-35.2709C51.641-31.1141 54.9879-27.7775 59.1344-27.7775C63.2912-27.7775 66.6278-31.1244 66.6278-35.2709C66.6278-39.4277 63.2809-42.7643 59.1344-42.7643C54.9776-42.7643 51.641-39.4175 51.641-35.2709Z"></path>
								</g>
							  </svg>