<?xml version="1.0" encoding="UTF-8"?>
<svg width="268px" height="267px" viewBox="0 0 268 267" version="1.1" xmlns="http://www.w3.org/2000/svg" xmlns:xlink="http://www.w3.org/1999/xlink">
    <title>编组</title>
    <g id="页面-1" stroke="none" stroke-width="1" fill="none" fill-rule="evenodd">
        <g id="编组" fill-rule="nonzero">
            <g id="Group-6" fill="#FF3320">
                <path d="M134,267 C60.36,267 0.6666667,207.306667 0.6666667,133.666667 C0.6666667,60.026667 60.36,0.3333333 134,0.3333333 C207.64,0.3333333 267.333333,60.026667 267.333333,133.666667 C267.333333,207.306667 207.64,267 134,267 Z" id="Fill-7"></path>
            </g>
            <g id="Group-7" transform="translate(120.666667, 62.666667)" fill="#FFFFFF">
                <path d="M1.39,134.68 C-4.07166667,122.678333 7.51166667,111.095 19.515,116.556667 C22.0283333,117.7 24.0733333,119.736667 25.235,122.243333 C30.81,134.281667 19.115,145.976667 7.07666667,140.403333 C4.57,139.24 2.53333333,137.195 1.39,134.68" id="Fill-9"></path>
                <path d="M26.6666667,13.5 C26.6666667,20.8633333 20.6966667,26.8333333 13.3333333,26.8333333 C5.97,26.8333333 0,20.8633333 0,13.5 C0,6.13666667 5.97,0.166666667 13.3333333,0.166666667 C20.6966667,0.166666667 26.6666667,6.13666667 26.6666667,13.5" id="Fill-11"></path>
                <polygon id="Fill-13" points="23.3333333 89.6116667 3.33333333 89.6116667 0 13.5 26.6666667 13.5"></polygon>
                <path d="M23.3333333,88.5 C23.3333333,82.9733333 18.8533333,78.5 13.3333333,78.5 C7.81166667,78.5 3.33333333,82.9733333 3.33333333,88.5 C3.33333333,94.0216667 7.81166667,98.5 13.3333333,98.5 C18.8533333,98.5 23.3333333,94.0216667 23.3333333,88.5" id="Fill-15"></path>
            </g>
        </g>
    </g>
</svg>