<svg class="ellipsis" xmlns="http://www.w3.org/2000/svg" viewBox="0 0 64 64" height="22" width="22" aria-hidden="true">
                        <path d="M12.9321097,6.8055484 C12.9321097,3.30883872 10.0968839,0.505161291 6.53720646,0.505161291 C3.07198065,0.505161291 0.236774194,3.30883872 0.236774194,6.8055484 C0.236774194,10.3022581 3.07198065,13.1059355 6.53720646,13.1059355 C10.0968839,13.1059355 12.9321097,10.3022581 12.9321097,6.8055484 Z M36.2435936,6.8055484 C36.2435936,3.30883872 33.4399162,0.505161291 29.9432065,0.505161291 C26.4779807,0.505161291 23.6743033,3.30883872 23.6743033,6.8055484 C23.6743033,10.3022581 26.4779807,13.1059355 29.9432065,13.1059355 C33.4399162,13.1059355 36.2435936,10.3022581 36.2435936,6.8055484 Z M59.6495291,6.8055484 C59.6495291,3.30883872 56.8459162,0.505161291 53.3492065,0.505161291 C49.7894646,0.505161291 46.9857872,3.30883872 46.9857872,6.8055484 C46.9857872,10.3022581 49.7894646,13.1059355 53.3492065,13.1059355 C56.8459162,13.1059355 59.6495291,10.3022581 59.6495291,6.8055484 Z" transform="translate(2 25.226)"></path>
                      </svg>