<svg viewBox="0 0 145.67578125 111.1806640625" version="1.1" xmlns="http://www.w3.org/2000/svg" class=" layout-box" width="47">
								<g transform="matrix(1 0 0 1 -1.8170800781249454 90.8203125)">
								  <path d="M27.7789 9.76808L92.6089 9.76808C91.4587 8.13106 90.6086 6.17297 90.2453 3.95612C90.1724 3.29287 90.0996 2.62962 90.0785 1.86286L27.9035 1.86286C23.0272 1.86286 20.3144-0.694633 20.3144-5.77797L20.3144-64.5976C20.3144-69.6292 23.0272-72.2384 27.9035-72.2384L112.108-72.2384C116.942-72.2384 119.697-69.6292 119.697-64.5976L119.697-62.8481C122.518-62.8481 125.045-62.8481 127.551-62.8375L127.551-64.981C127.551-75.0367 122.465-80.1437 112.233-80.1437L27.7789-80.1437C17.5986-80.1437 12.4609-75.0578 12.4609-64.981L12.4609-5.3946C12.4609 4.6822 17.5986 9.76808 27.7789 9.76808ZM51.1572-1.87542L89.8474-1.87542C89.8474-3.34762 89.8474-4.89269 89.8474-6.37545L51.1572-6.37545C49.8508-6.37545 48.8761-5.50418 48.8761-4.09428C48.8761-2.73613 49.8508-1.87542 51.1572-1.87542ZM105.09 9.76808L127.288 9.76808C133.371 9.76808 136.847 6.40563 136.847 0.622849L136.847-47.9874C136.847-53.8219 133.36-57.1431 127.288-57.1431L105.09-57.1431C99.0077-57.1431 95.5417-53.8219 95.5417-47.9874L95.5417 0.622849C95.5417 6.40563 98.9971 9.76808 105.09 9.76808ZM105.205 3.36372C103.059 3.36372 101.946 2.19903 101.946-0.0393971L101.946-47.3663C101.946-49.6153 103.059-50.7388 105.205-50.7388L109.608-50.7388C109.784-50.7388 109.898-50.6247 109.898-50.4378L109.898-50.0228C109.898-48.3215 111.019-47.1703 112.731-47.1703L119.648-47.1703C121.36-47.1703 122.491-48.3215 122.491-50.0228L122.491-50.4378C122.491-50.6247 122.594-50.7388 122.749-50.7388L127.174-50.7388C129.361-50.7388 130.443-49.6153 130.443-47.3663L130.443-0.0393971C130.443 2.19903 129.361 3.36372 127.174 3.36372ZM109.532 0.871532L122.743 0.871532C123.749 0.871532 124.517 0.16608 124.517-0.840344C124.517-1.77391 123.739-2.50047 122.743-2.50047L109.532-2.50047C108.536-2.50047 107.872-1.77391 107.872-0.840344C107.872 0.217834 108.474 0.871532 109.532 0.871532Z"></path>
								</g>
							  </svg>